<svg xmlns="http://www.w3.org/2000/svg" viewBox="0 0 100 100" height="432" width="432"><circle cx="50" cy="36" r="20" fill="#fff"/><path d="M50.6 10.8a24.7 24.7 0 0 0-19.4 39.9s-.2 6.6-3.3 8.7a16.7 16.7 0 0 0 9.5-3 25.1 25.1 0 0 0 13.2 3.8 24.7 24.7 0 0 0 0-49.4z" fill="#e6211a"/><path fill="#323333" d="M8.6 66.8l2.6 10 .6 2.8.6-2.7 2.3-10.1h4.5l2.5 10 .6 2.8.6-2.7 2.7-10.1H30l-5.8 17.5h-4.1l-2.4-10.2-.7-3.4-.8 3.4-2.4 10.2h-4L4 66.8h4.6zM42.3 82.7c-1.2 1.4-3.2 2.1-5.8 2.1s-4.5-.7-5.8-2.1a6.6 6.6 0 0 1-1.9-4.9 6.8 6.8 0 0 1 1.9-4.8c1.3-1.4 3.2-2.1 5.8-2.1s4.6.7 5.8 2.1a6.8 6.8 0 0 1 1.9 4.8 6.6 6.6 0 0 1-1.9 4.9m-3.1-1.8a4.8 4.8 0 0 0 .9-3.1 4.7 4.7 0 0 0-.9-3 3.5 3.5 0 0 0-2.7-1 3.6 3.6 0 0 0-2.7 1 4.7 4.7 0 0 0-.9 3 4.8 4.8 0 0 0 .9 3.1 3.6 3.6 0 0 0 2.7 1 3.5 3.5 0 0 0 2.7-1M53.1 71.3h4l2.3 9.4 2.3-9.4h4.2l-4.4 13h-4.1l-2.3-9.4-2.4 9.4h-4.1l-4.3-13h4.3l2.3 9.4 2.2-9.4zM79.5 82.7c-1.3 1.4-3.2 2.1-5.8 2.1s-4.5-.7-5.8-2.1a6.6 6.6 0 0 1-1.9-4.9 6.8 6.8 0 0 1 1.9-4.8c1.3-1.4 3.2-2.1 5.8-2.1s4.5.7 5.8 2.1a6.8 6.8 0 0 1 1.9 4.8 6.6 6.6 0 0 1-1.9 4.9m-3.1-1.8a4.8 4.8 0 0 0 .9-3.1 4.7 4.7 0 0 0-.9-3 4.1 4.1 0 0 0-5.4 0 4.7 4.7 0 0 0-.9 3 4.8 4.8 0 0 0 .9 3.1 4.1 4.1 0 0 0 5.4 0M96.1 82.7c-1.3 1.4-3.2 2.1-5.8 2.1s-4.5-.7-5.8-2.1a6.6 6.6 0 0 1-1.9-4.9 6.8 6.8 0 0 1 1.9-4.8c1.3-1.4 3.2-2.1 5.8-2.1s4.5.7 5.8 2.1a6.8 6.8 0 0 1 1.9 4.8 6.6 6.6 0 0 1-1.9 4.9m-3.2-1.8a4.8 4.8 0 0 0 1-3.1 4.7 4.7 0 0 0-1-3 3.3 3.3 0 0 0-2.6-1 3.3 3.3 0 0 0-2.7 1 4.7 4.7 0 0 0-.9 3 4.8 4.8 0 0 0 .9 3.1 3.3 3.3 0 0 0 2.7 1 3.3 3.3 0 0 0 2.6-1"/><path fill="#fff" d="M64.8 35.5v-2.4h-2.5l1.9-5.4h-4.5l-2.8 10-.6 2.7-.7-2.8-2.5-9.9h-4.6l-2.4 10-.6 2.7-.6-2.8-2.8-9.9h-4.6l1.8 5.4h-2.7v2.4h3.5l.7 1.9h-4.2v2.3h5l1.8 5.4h4.1l2.6-10.2.7-3.4.7 3.4 2.6 10.2h4.2l1.8-5.4h4.7v-2.3h-3.9l.6-1.9h3.3z"/></svg>